<?xml version="1.0" encoding="UTF-8" standalone="no"?>
<!-- Created with Inkscape (http://www.inkscape.org/) -->

<svg
   xmlns:dc="http://purl.org/dc/elements/1.1/"
   xmlns:cc="http://creativecommons.org/ns#"
   xmlns:rdf="http://www.w3.org/1999/02/22-rdf-syntax-ns#"
   xmlns:svg="http://www.w3.org/2000/svg"
   xmlns="http://www.w3.org/2000/svg"
   version="1.1"
   width="744.09448"
   height="1052.3622"
   id="svg2">
  <defs
     id="defs10">
    <linearGradient
       id="linearGradient6803">
      <stop
         id="stop6805"
         style="stop-color:#ef0b0b;stop-opacity:1"
         offset="0" />
    </linearGradient>
    <marker
       refX="0"
       refY="0"
       orient="auto"
       id="DiamondLstart"
       style="overflow:visible">
      <path
         d="M 0,-7.0710768 -7.0710894,0 0,7.0710589 7.0710462,0 0,-7.0710768 z"
         transform="matrix(0.8,0,0,0.8,5.6,0)"
         id="path3889"
         style="fill-rule:evenodd;stroke:#000000;stroke-width:1pt" />
    </marker>
    <marker
       refX="0"
       refY="0"
       orient="auto"
       id="DotL"
       style="overflow:visible">
      <path
         d="m -2.5,-1 c 0,2.76 -2.24,5 -5,5 -2.76,0 -5,-2.24 -5,-5 0,-2.76 2.24,-5 5,-5 2.76,0 5,2.24 5,5 z"
         transform="matrix(0.8,0,0,0.8,5.92,0.8)"
         id="path3862"
         style="fill-rule:evenodd;stroke:#000000;stroke-width:1pt" />
    </marker>
    <marker
       refX="0"
       refY="0"
       orient="auto"
       id="Arrow1Lstart"
       style="overflow:visible">
      <path
         d="M 0,0 5,-5 -12.5,0 5,5 0,0 z"
         transform="matrix(0.8,0,0,0.8,10,0)"
         id="path3801"
         style="fill-rule:evenodd;stroke:#000000;stroke-width:1pt" />
    </marker>
    <linearGradient
       id="linearGradient3791">
      <stop
         id="stop3793"
         style="stop-color:#000000;stop-opacity:1"
         offset="0" />
    </linearGradient>
  </defs>
  <metadata
     id="metadata7">
    <rdf:RDF>
      <cc:Work
         rdf:about="">
        <dc:format>image/svg+xml</dc:format>
        <dc:type
           rdf:resource="http://purl.org/dc/dcmitype/StillImage" />
        <dc:title></dc:title>
      </cc:Work>
    </rdf:RDF>
  </metadata>
  <g id="0-object"> 
  <circle
     cx="250"
     cy="250"
     r="250"
     transform="translate(9.5890411,6.8493151)"
     id="0-border"
     style="fill:#82c03b;fill-opacity:0.30392157;fill-rule:nonzero;stroke:#00ad00;stroke-width:13.97299957;stroke-linecap:square;stroke-linejoin:miter;stroke-miterlimit:4;stroke-opacity:1;stroke-dasharray:none" />
  <text
     x="155.96622"
     y="74.384636"
     id="0-name"
     xml:space="preserve"
     style="font-size:60px;font-style:normal;font-weight:normal;line-height:125%;letter-spacing:0px;word-spacing:0px;fill:#000000;fill-opacity:1;stroke:none;font-family:Sans">namexx</text>
  <text
     x="148.26204"
     y="131.64954"
     id="0-description"
     onload=" target = evt.target;  value = target.textContent;  objId = getObjectId(target.id); trueElement = document.getElementById(objId+'-custom0'); falseElement = document.getElementById(objId+'-custom1'); if(value=='true') {falseElement.style.setProperty('display','none','');} else {trueElement.style.setProperty('display','none','');}"
     xml:space="preserve"
     style="font-size:40px;font-style:normal;font-weight:normal;line-height:125%;letter-spacing:0px;word-spacing:0px;fill:#000000;fill-opacity:1;stroke:none;font-family:Sans">true</text>
  <path
     d="m 89.884627,293.17884 c 77.220203,51.07647 66.095813,29.46907 101.925803,87.42797 2.79629,4.5233 3.76661,10.08305 6.88176,14.39298 0.69657,0.96372 2.60306,0.75952 3.56678,0.063 4.08875,-2.9553 7.50055,-6.77397 10.88915,-10.51148 13.60143,-15.00188 27.771,-29.57561 40.05279,-45.67569 18.20256,-23.86155 33.77114,-49.62916 51.25668,-74.02103 18.27448,-24.65271 36.54895,-49.3054 54.82343,-73.95809 7.28042,-8.19659 15.1097,-15.93675 21.84126,-24.58975 0.73013,-0.93856 -0.61404,-2.58918 0.063,-3.56678 1.91472,-2.7651 4.6896,-4.83792 7.25943,-7.00766 7.09617,-5.99143 14.47691,-11.63748 21.71537,-17.45621"
     id="0-custom0"
     style="fill:none;stroke:#008400;stroke-width:16;stroke-linecap:round;stroke-linejoin:round;stroke-miterlimit:4;stroke-opacity:1;stroke-dasharray:none;marker-start:none;marker-mid:none" />
  <g id="0-custom1">
  <path
     d="m 359.39738,152.26451 c -48.11593,41.72331 -65.58873,104.71311 -103.45256,153.39516 -11.3568,14.6016 -26.16041,26.16042 -39.24062,39.24063 -9.51288,9.51288 -18.65315,19.41357 -28.53864,28.53863 -5.59481,5.16444 -12.10651,9.25546 -17.83665,14.26932 -3.79672,3.32214 -6.37596,8.10638 -10.70198,10.70199 -22.04079,13.22447 3.89811,-11.03277 -10.70199,3.56733"
     id="path3015"
     style="fill:none;stroke:#ef0b0b;stroke-width:24;stroke-linecap:round;stroke-linejoin:miter;stroke-miterlimit:4;stroke-opacity:1;stroke-dasharray:none" />
  <path
     d="m 107.25836,178.60567 c 58.29392,68.70354 92.62733,122.81678 164.09716,171.23182 14.09569,9.54869 30.98872,14.1156 46.37528,21.40397 20.26523,9.59932 39.50755,20.85244 60.6446,28.53864 7.0678,2.57011 14.26932,4.75643 21.40397,7.13466 3.56733,1.18911 7.33868,1.88567 10.70199,3.56733 22.62756,11.31378 10.25624,10.70199 21.40398,10.70199"
     id="path3017"
     style="fill:none;stroke:#ef0b0b;stroke-width:24;stroke-linecap:round;stroke-linejoin:miter;stroke-miterlimit:4;stroke-opacity:1;stroke-dasharray:none" />
  </g>
  </g>   
</svg>
