<?xml version="1.0" encoding="UTF-8" standalone="no"?>
<!-- Created with Inkscape (http://www.inkscape.org/) -->

<svg
   xmlns:dc="http://purl.org/dc/elements/1.1/"
   xmlns:cc="http://creativecommons.org/ns#"
   xmlns:rdf="http://www.w3.org/1999/02/22-rdf-syntax-ns#"
   xmlns:svg="http://www.w3.org/2000/svg"
   xmlns="http://www.w3.org/2000/svg"
   xmlns:xlink="http://www.w3.org/1999/xlink"
   version="1.1"
   width="1052.3622"
   height="744.09448"
   id="svg2">
  <defs
     id="defs4">
    <linearGradient
       id="linearGradient4720">
      <stop
         id="stop4722"
         style="stop-color:#000000;stop-opacity:1"
         offset="0" />
    </linearGradient>
    <linearGradient
       id="linearGradient4654">
      <stop
         id="stop4656"
         style="stop-color:#000000;stop-opacity:1"
         offset="0" />
    </linearGradient>
    
    <linearGradient
       id="linearGradient5215">
      <stop
         id="stop5217"
         style="stop-color:#000000;stop-opacity:1"
         offset="0" />
    </linearGradient>
  </defs>
  <metadata
     id="metadata7">
    <rdf:RDF>
      <cc:Work
         rdf:about="">
        <dc:format>image/svg+xml</dc:format>
        <dc:type
           rdf:resource="http://purl.org/dc/dcmitype/StillImage" />
        <dc:title></dc:title>
      </cc:Work>
    </rdf:RDF>
  </metadata>
  <g
     transform="translate(-58.938176,-15.55313)"
     id="object">
    <rect
       width="363.45209"
       height="279.95633"
       x="66.30545"
       y="23.738995"
       id="border"
       style="opacity:0.16872427;fill:#000000;fill-opacity:1;stroke:#000000;stroke-width:13.97299957;stroke-linecap:square;stroke-linejoin:miter;stroke-miterlimit:4;stroke-opacity:1;stroke-dasharray:none" />
    <g
       id="g3108">
      <text
         x="108.79569"
         y="366.359329"
         id="name"
         xml:space="preserve"
         style="font-size:60px;font-style:normal;font-weight:normal;line-height:125%;letter-spacing:0px;word-spacing:0px;fill:#000000;fill-opacity:1;stroke:none;font-family:Sans">name</text>
      <text
         x="108.94163"
         y="116.06863"
         id="description"
         xml:space="preserve"
         style="font-size:50px;font-style:normal;font-weight:normal;line-height:125%;letter-spacing:0px;word-spacing:0px;fill:#000000;fill-opacity:1;stroke:none;font-family:Sans">description</text>
    </g>
    <g
       transform="scale(2,2) translate(-630.54125,-270.30967)"
       id="g1056">
      <path
         d="m 815.575,316.062 c -0.035,-0.181 -0.104,-0.366 -0.211,-0.569 -0.106,-0.201 -0.249,-0.418 -0.431,-0.664 -0.043,-0.056 -0.107,-0.113 -0.189,-0.174 -0.083,-0.06 -0.183,-0.121 -0.297,-0.182 -0.114,-0.061 -0.244,-0.122 -0.384,-0.181 -0.14,-0.059 -0.291,-0.118 -0.448,-0.174 -0.113,-0.04 -0.23,-0.079 -0.35,-0.117 -0.118,-0.038 -0.241,-0.073 -0.364,-0.106 -0.122,-0.034 -0.245,-0.064 -0.37,-0.095 -0.124,-0.029 -0.248,-0.056 -0.371,-0.079 -0.634,-0.122 -1.267,-0.244 -1.904,-0.368 -0.181,-0.036 -0.365,-0.072 -0.547,-0.107 0.45,-1.744 0.901,-3.489 1.354,-5.235 l 0,0 c 10e-4,-0.003 10e-4,-0.007 0.002,-0.009 l -0.002,0.002 c 0.01,-0.038 0.011,-0.075 -0.002,-0.111 -0.071,-0.203 -0.148,-0.378 -0.244,-0.542 -0.097,-0.164 -0.21,-0.314 -0.353,-0.461 -0.142,-0.149 -0.312,-0.294 -0.52,-0.451 -0.209,-0.152 -0.454,-0.315 -0.748,-0.499 -0.028,-0.018 -0.06,-0.034 -0.093,-0.052 -0.034,-0.016 -0.069,-0.033 -0.109,-0.05 -0.038,-0.016 -0.08,-0.032 -0.124,-0.049 -0.044,-0.016 -0.089,-0.032 -0.137,-0.048 -0.15,-0.048 -0.321,-0.095 -0.504,-0.136 -0.185,-0.041 -0.38,-0.079 -0.582,-0.113 -0.201,-0.033 -0.409,-0.06 -0.614,-0.081 -0.206,-0.021 -0.409,-0.036 -0.604,-0.043 -0.555,-0.021 -1.109,-0.041 -1.664,-0.063 -0.555,-0.022 -1.108,-0.043 -1.661,-0.065 -0.554,-0.021 -1.107,-0.041 -1.661,-0.063 -0.151,-0.007 -0.304,-0.013 -0.455,-0.018 0.302,-1.448 0.603,-2.894 0.905,-4.341 -0.01,0.054 -0.038,0.109 -0.08,0.163 -0.002,0.004 -0.008,0.009 -0.012,0.011 0.06,-0.075 0.096,-0.15 0.098,-0.224 10e-4,-0.075 -0.032,-0.149 -0.105,-0.211 -0.187,-0.164 -0.361,-0.305 -0.544,-0.435 -0.181,-0.127 -0.368,-0.243 -0.579,-0.354 -0.211,-0.11 -0.443,-0.218 -0.714,-0.328 -0.271,-0.11 -0.581,-0.225 -0.943,-0.351 -0.14,-0.044 -0.313,-0.079 -0.508,-0.107 -0.193,-0.027 -0.408,-0.047 -0.629,-0.058 -0.222,-0.012 -0.45,-0.016 -0.673,-0.012 -0.223,0.005 -0.438,0.017 -0.636,0.039 -0.447,0.049 -0.894,0.097 -1.343,0.146 -0.45,0.048 -0.899,0.098 -1.35,0.146 -0.451,0.048 -0.901,0.098 -1.354,0.146 -0.454,0.048 -0.907,0.099 -1.362,0.147 -0.187,0.021 -0.426,0.004 -0.681,-0.034 -0.256,-0.038 -0.526,-0.096 -0.777,-0.158 -0.093,-0.021 -0.179,-0.045 -0.264,-0.068 l 0.53,-3.509 c -0.004,0.032 -0.014,0.066 -0.027,0.099 -0.008,0.018 -0.019,0.036 -0.028,0.053 0.04,-0.073 0.063,-0.147 0.061,-0.22 -0.002,-0.077 -0.029,-0.151 -0.08,-0.217 -0.051,-0.067 -0.127,-0.127 -0.23,-0.176 -0.129,-0.061 -0.255,-0.117 -0.375,-0.169 -0.12,-0.052 -0.238,-0.101 -0.354,-0.147 -0.115,-0.044 -0.23,-0.088 -0.346,-0.128 -0.116,-0.041 -0.232,-0.078 -0.353,-0.115 -0.12,-0.036 -0.245,-0.071 -0.373,-0.105 -0.13,-0.033 -0.264,-0.067 -0.406,-0.1 -0.142,-0.033 -0.292,-0.064 -0.451,-0.097 -0.16,-0.034 -0.33,-0.066 -0.513,-0.1 -0.141,-0.027 -0.311,-0.042 -0.491,-0.047 -0.183,-0.004 -0.378,0 -0.574,0.015 -0.197,0.014 -0.396,0.037 -0.583,0.066 -0.188,0.03 -0.363,0.067 -0.515,0.11 -0.334,0.094 -0.667,0.189 -1.001,0.284 -0.337,0.095 -0.673,0.191 -1.011,0.287 -0.34,0.095 -0.681,0.192 -1.022,0.289 -0.344,0.097 -0.688,0.194 -1.034,0.291 -0.142,0.041 -0.36,0.052 -0.606,0.047 -0.248,-0.004 -0.524,-0.027 -0.783,-0.052 -0.259,-0.027 -0.5,-0.058 -0.676,-0.083 -0.177,-0.025 -0.288,-0.042 -0.29,-0.041 -0.054,-0.015 -0.107,-0.027 -0.161,-0.04 -0.054,-0.013 -0.106,-0.025 -0.159,-0.038 -0.054,-0.013 -0.107,-0.026 -0.16,-0.039 -0.055,-0.013 -0.107,-0.026 -0.162,-0.039 -0.018,-0.005 -0.117,-0.039 -0.258,-0.088 -0.139,-0.05 -0.316,-0.119 -0.489,-0.192 -0.021,-0.009 -0.038,-0.019 -0.06,-0.028 0.073,-0.796 0.146,-1.591 0.218,-2.387 0,0.008 -10e-4,0.016 -0.003,0.025 -10e-4,0.007 -0.004,0.016 -0.005,0.023 -0.002,0.009 -0.004,0.016 -0.007,0.024 -0.002,0.008 -0.006,0.016 -0.009,0.024 0.026,-0.066 0.032,-0.137 0.016,-0.208 -0.016,-0.071 -0.051,-0.142 -0.104,-0.21 -0.055,-0.068 -0.13,-0.132 -0.221,-0.188 -0.091,-0.057 -0.201,-0.106 -0.327,-0.145 -0.308,-0.082 -0.582,-0.149 -0.845,-0.207 -0.263,-0.058 -0.512,-0.104 -0.771,-0.144 -0.257,-0.04 -0.521,-0.072 -0.814,-0.099 -0.29,-0.027 -0.607,-0.05 -0.97,-0.071 -0.14,-0.008 -0.297,-0.004 -0.456,0.012 -0.16,0.016 -0.325,0.041 -0.484,0.076 -0.161,0.035 -0.316,0.078 -0.457,0.126 -0.141,0.048 -0.267,0.102 -0.369,0.16 -0.221,0.124 -0.443,0.248 -0.667,0.372 -0.225,0.125 -0.45,0.25 -0.676,0.377 -0.227,0.127 -0.456,0.254 -0.686,0.382 -0.23,0.128 -0.461,0.258 -0.693,0.387 -0.096,0.053 -0.278,0.09 -0.501,0.113 -0.223,0.025 -0.482,0.037 -0.73,0.043 -0.249,0.005 -0.485,0.005 -0.66,0.003 -0.175,-0.002 -0.288,-0.005 -0.29,-0.005 -0.056,-0.006 -0.111,-0.013 -0.167,-0.018 -0.057,-0.005 -0.113,-0.011 -0.171,-0.016 -0.057,-0.005 -0.114,-0.012 -0.171,-0.017 -0.058,-0.006 -0.116,-0.012 -0.175,-0.017 -0.011,-0.002 -0.07,-0.012 -0.162,-0.028 -0.092,-0.016 -0.215,-0.039 -0.354,-0.066 -0.139,-0.028 -0.291,-0.061 -0.441,-0.098 -0.151,-0.038 -0.299,-0.077 -0.429,-0.121 -0.049,-0.016 -0.096,-0.033 -0.137,-0.05 -0.041,-0.017 -0.079,-0.034 -0.111,-0.051 -0.031,-0.018 -0.058,-0.036 -0.079,-0.052 -0.021,-0.018 -0.034,-0.036 -0.041,-0.054 -0.062,-0.155 -0.122,-0.311 -0.182,-0.465 -0.061,-0.152 -0.121,-0.306 -0.18,-0.457 -0.061,-0.151 -0.119,-0.302 -0.177,-0.451 -0.06,-0.149 -0.117,-0.296 -0.175,-0.443 -0.02,-0.052 -0.055,-0.104 -0.1,-0.156 -0.047,-0.051 -0.104,-0.101 -0.171,-0.149 -0.067,-0.048 -0.143,-0.093 -0.226,-0.134 -0.082,-0.041 -0.172,-0.077 -0.265,-0.107 -0.028,-0.01 -0.06,-0.019 -0.089,-0.028 -0.03,-0.007 -0.062,-0.015 -0.092,-0.021 -0.031,-0.007 -0.063,-0.014 -0.094,-0.019 -0.031,-0.006 -0.063,-0.011 -0.095,-0.016 -0.337,-0.041 -0.636,-0.073 -0.917,-0.097 -0.282,-0.025 -0.545,-0.041 -0.809,-0.048 -0.264,-0.008 -0.529,-0.008 -0.816,-0.002 -0.286,0.007 -0.594,0.021 -0.941,0.042 -0.137,0.008 -0.274,0.03 -0.41,0.063 -0.134,0.033 -0.266,0.077 -0.388,0.127 -0.121,0.05 -0.232,0.108 -0.327,0.17 -0.093,0.061 -0.169,0.125 -0.223,0.19 -0.109,0.142 -0.22,0.283 -0.331,0.427 -0.112,0.144 -0.227,0.288 -0.34,0.432 -0.113,0.146 -0.229,0.292 -0.345,0.44 -0.117,0.148 -0.235,0.297 -0.354,0.447 -0.048,0.062 -0.189,0.118 -0.379,0.167 -0.188,0.049 -0.421,0.092 -0.647,0.127 -0.229,0.035 -0.449,0.063 -0.613,0.082 -0.166,0.02 -0.273,0.029 -0.273,0.03 -0.06,0.002 -0.117,0.003 -0.175,0.004 -0.059,0.001 -0.116,0.002 -0.173,0.003 -0.058,0.002 -0.114,0.002 -0.173,0.004 -0.057,0.001 -0.113,0.003 -0.171,0.004 -0.018,0 -0.117,-0.003 -0.266,-0.011 -0.15,-0.009 -0.348,-0.021 -0.563,-0.042 -0.215,-0.021 -0.447,-0.047 -0.665,-0.085 -0.217,-0.038 -0.418,-0.086 -0.573,-0.146 -0.176,-0.141 -0.352,-0.283 -0.527,-0.422 -0.175,-0.14 -0.35,-0.278 -0.521,-0.416 -0.172,-0.138 -0.346,-0.275 -0.517,-0.411 -0.171,-0.135 -0.34,-0.269 -0.508,-0.403 -0.032,-0.025 -0.07,-0.051 -0.11,-0.077 -0.039,-0.024 -0.083,-0.049 -0.131,-0.072 -0.048,-0.024 -0.097,-0.048 -0.149,-0.07 -0.052,-0.021 -0.107,-0.043 -0.165,-0.063 -0.077,-0.028 -0.161,-0.054 -0.246,-0.077 -0.085,-0.023 -0.173,-0.044 -0.26,-0.06 -0.086,-0.016 -0.173,-0.03 -0.259,-0.04 -0.085,-0.009 -0.17,-0.014 -0.251,-0.014 -0.358,0 -0.671,0.003 -0.961,0.013 -0.29,0.01 -0.556,0.024 -0.817,0.047 -0.263,0.023 -0.521,0.054 -0.794,0.094 -0.273,0.04 -0.563,0.089 -0.887,0.15 -0.126,0.023 -0.245,0.061 -0.35,0.109 -0.106,0.048 -0.2,0.105 -0.279,0.168 -0.079,0.063 -0.142,0.133 -0.184,0.204 -0.043,0.07 -0.066,0.143 -0.065,0.211 0.004,0.151 0.007,0.302 0.01,0.453 0.002,0.153 0.006,0.306 0.008,0.46 0.004,0.155 0.006,0.313 0.008,0.468 0.002,0.158 0.004,0.317 0.005,0.477 10e-4,0.064 -0.093,0.135 -0.235,0.205 -0.144,0.07 -0.337,0.14 -0.528,0.202 -0.195,0.062 -0.39,0.116 -0.536,0.155 -0.148,0.038 -0.249,0.061 -0.256,0.063 -0.057,0.009 -0.113,0.017 -0.17,0.027 -0.058,0.008 -0.113,0.016 -0.169,0.026 -0.057,0.008 -0.112,0.018 -0.167,0.028 -0.057,0.009 -0.112,0.018 -0.169,0.027 -0.022,10e-4 -0.146,0.013 -0.327,0.027 -0.18,0.013 -0.418,0.028 -0.668,0.038 -0.25,0.008 -0.513,0.011 -0.742,0 -0.229,-0.013 -0.428,-0.038 -0.549,-0.084 -0.29,-0.117 -0.58,-0.232 -0.868,-0.348 -0.287,-0.114 -0.573,-0.229 -0.859,-0.342 -0.285,-0.113 -0.57,-0.226 -0.853,-0.338 -0.283,-0.112 -0.563,-0.223 -0.842,-0.334 -0.128,-0.051 -0.279,-0.098 -0.445,-0.138 -0.164,-0.041 -0.343,-0.074 -0.523,-0.1 -0.179,-0.026 -0.361,-0.043 -0.533,-0.049 -0.173,-0.005 -0.336,-0.002 -0.479,0.016 -0.364,0.042 -0.682,0.085 -0.971,0.13 -0.29,0.046 -0.552,0.094 -0.801,0.148 -0.253,0.056 -0.492,0.118 -0.74,0.192 -0.25,0.072 -0.506,0.158 -0.789,0.257 -0.113,0.04 -0.205,0.092 -0.275,0.153 -0.071,0.061 -0.121,0.131 -0.151,0.205 -0.029,0.072 -0.036,0.147 -0.023,0.221 -10e-4,-0.007 -0.002,-0.015 -0.003,-0.021 l 0.35,2.987 c -0.004,0.002 -0.007,0.002 -0.01,0.003 -0.025,0.008 -0.051,0.015 -0.076,0.023 -0.024,0.008 -0.05,0.017 -0.074,0.025 -0.025,0.008 -0.05,0.016 -0.075,0.025 -0.025,0.009 -0.051,0.016 -0.078,0.025 -0.025,0.008 -0.054,0.016 -0.081,0.024 -0.022,0.005 -0.141,0.033 -0.317,0.071 -0.176,0.038 -0.411,0.084 -0.665,0.126 -0.253,0.042 -0.524,0.081 -0.774,0.1 -0.25,0.02 -0.478,0.021 -0.643,-0.011 -0.404,-0.076 -0.806,-0.152 -1.206,-0.229 -0.399,-0.077 -0.799,-0.153 -1.196,-0.228 -0.396,-0.075 -0.792,-0.151 -1.187,-0.227 -0.395,-0.074 -0.787,-0.15 -1.18,-0.223 -0.181,-0.034 -0.386,-0.061 -0.598,-0.079 -0.211,-0.019 -0.431,-0.029 -0.646,-0.03 -0.215,-0.002 -0.425,0.005 -0.615,0.021 -0.191,0.016 -0.363,0.042 -0.502,0.078 -0.358,0.094 -0.666,0.18 -0.941,0.265 -0.275,0.086 -0.519,0.171 -0.743,0.262 -0.228,0.09 -0.436,0.188 -0.644,0.297 -0.209,0.109 -0.417,0.231 -0.641,0.373 -0.09,0.056 -0.146,0.122 -0.172,0.195 -0.023,0.066 -0.016,0.136 0.006,0.208 -0.004,-0.017 -0.016,-0.035 -0.018,-0.052 0.239,1.36 0.479,2.72 0.718,4.08 -0.108,0.014 -0.215,0.021 -0.308,0.018 -0.509,-0.018 -1.018,-0.036 -1.525,-0.054 -0.507,-0.018 -1.015,-0.036 -1.521,-0.054 -0.508,-0.018 -1.015,-0.036 -1.521,-0.054 -0.506,-0.018 -1.012,-0.036 -1.518,-0.054 -0.234,-0.007 -0.485,-0.005 -0.74,0.007 -0.255,0.013 -0.512,0.036 -0.756,0.066 -0.243,0.031 -0.474,0.068 -0.675,0.115 -0.202,0.046 -0.373,0.099 -0.499,0.158 -0.325,0.152 -0.603,0.289 -0.839,0.418 -0.24,0.133 -0.441,0.256 -0.619,0.386 -0.178,0.129 -0.331,0.262 -0.472,0.407 -0.143,0.145 -0.273,0.305 -0.405,0.49 -0.03,0.041 -0.043,0.084 -0.043,0.129 10e-4,0.043 0.016,0.088 0.042,0.133 -0.017,-0.029 -0.029,-0.057 -0.036,-0.084 0.363,1.581 0.729,3.163 1.092,4.743 -0.142,0.016 -0.282,0.033 -0.425,0.049 -0.599,0.066 -1.199,0.132 -1.801,0.199 -0.603,0.066 -1.206,0.133 -1.809,0.199 -0.279,0.032 -0.57,0.079 -0.856,0.135 -0.286,0.057 -0.565,0.125 -0.823,0.199 -0.258,0.073 -0.494,0.154 -0.688,0.238 -0.195,0.083 -0.351,0.167 -0.445,0.251 -0.244,0.215 -0.445,0.405 -0.608,0.584 -0.163,0.18 -0.287,0.346 -0.379,0.513 -0.093,0.168 -0.152,0.333 -0.187,0.513 -0.035,0.179 -0.041,0.37 -0.029,0.586 0,0.016 0.005,0.034 0.01,0.05 0,-0.003 -0.002,-0.007 -0.004,-0.011 0.553,2.025 1.104,4.051 1.655,6.078 -0.097,0.027 -0.193,0.056 -0.29,0.083 -0.305,0.086 -0.608,0.19 -0.896,0.305 -0.288,0.115 -0.561,0.24 -0.798,0.37 -0.24,0.127 -0.446,0.258 -0.603,0.386 -0.156,0.125 -0.262,0.246 -0.3,0.354 -0.097,0.276 -0.163,0.517 -0.192,0.737 -0.03,0.224 -0.025,0.425 0.02,0.622 0.015,0.065 0.042,0.131 0.066,0.196 -0.014,-0.038 -0.033,-0.074 -0.043,-0.111 4.156,14.256 8.312,28.511 12.469,42.767 0.031,0.106 0.068,0.212 0.114,0.317 0.045,0.106 0.097,0.214 0.157,0.323 0.06,0.109 0.129,0.221 0.205,0.337 0.076,0.116 0.16,0.238 0.255,0.364 0.088,0.095 0.224,0.174 0.395,0.235 0.17,0.061 0.374,0.105 0.598,0.133 0.223,0.025 0.466,0.034 0.715,0.023 0.248,-0.009 0.501,-0.04 0.746,-0.086 0.057,-0.013 0.113,-0.023 0.169,-0.034 0.824,3.012 1.647,6.026 2.469,9.038 0.001,0.005 0.004,0.011 0.005,0.016 0.003,0.008 0.003,0.011 0.006,0.019 10e-4,0.005 0.004,0.011 0.006,0.016 0.002,0.006 0.003,0.011 0.006,0.015 0.068,0.174 0.136,0.334 0.205,0.484 0.07,0.15 0.141,0.291 0.216,0.423 0.075,0.133 0.154,0.257 0.237,0.375 0.084,0.117 0.175,0.23 0.271,0.336 0.096,0.107 0.199,0.21 0.311,0.311 0.111,0.099 0.232,0.195 0.364,0.292 0.132,0.097 0.274,0.194 0.429,0.291 0.155,0.097 0.323,0.195 0.506,0.298 0.141,0.082 0.332,0.129 0.556,0.144 0.225,0.016 0.479,-0.002 0.75,-0.045 0.269,-0.043 0.553,-0.115 0.832,-0.207 0.279,-0.093 0.555,-0.208 0.807,-0.341 0.543,-0.281 1.084,-0.562 1.624,-0.843 0.537,-0.28 1.072,-0.558 1.605,-0.836 0.531,-0.278 1.061,-0.555 1.588,-0.829 0.244,-0.127 0.484,-0.255 0.728,-0.382 0.685,3.464 1.368,6.928 2.051,10.393 0.014,0.067 0.031,0.136 0.051,0.199 0.021,0.064 0.044,0.127 0.071,0.185 0.027,0.059 0.057,0.114 0.091,0.165 0.034,0.052 0.072,0.101 0.112,0.144 0.335,0.296 0.644,0.545 0.948,0.757 0.306,0.212 0.607,0.386 0.929,0.533 0.322,0.145 0.665,0.265 1.05,0.367 0.385,0.102 0.813,0.188 1.309,0.27 0.195,0.03 0.421,0.009 0.664,-0.053 0.242,-0.061 0.501,-0.163 0.758,-0.296 0.259,-0.133 0.516,-0.294 0.757,-0.477 0.241,-0.182 0.466,-0.384 0.658,-0.596 0.413,-0.456 0.823,-0.91 1.23,-1.36 0.405,-0.446 0.808,-0.894 1.209,-1.334 0.397,-0.439 0.793,-0.878 1.187,-1.312 0.391,-0.433 0.778,-0.863 1.166,-1.29 0.157,-0.172 0.419,-0.289 0.723,-0.369 0.306,-0.079 0.652,-0.12 0.979,-0.143 0.328,-0.02 0.637,-0.02 0.864,-0.012 0.227,0.005 0.373,0.014 0.375,0.012 0.071,0.019 0.144,0.036 0.214,0.053 0.072,0.018 0.144,0.034 0.216,0.052 0.07,0.018 0.143,0.034 0.212,0.052 0.071,0.019 0.143,0.038 0.213,0.056 0.013,0.006 0.088,0.036 0.201,0.088 0.113,0.053 0.267,0.126 0.438,0.216 0.17,0.09 0.358,0.197 0.543,0.317 0.185,0.122 0.364,0.256 0.518,0.398 0.058,0.054 0.111,0.109 0.159,0.165 0.026,0.028 0.046,0.059 0.067,0.089 0.155,2.377 0.311,4.754 0.465,7.131 0.013,0.199 0.045,0.398 0.092,0.598 0.048,0.199 0.112,0.395 0.19,0.58 0.077,0.187 0.17,0.363 0.271,0.523 0.104,0.161 0.22,0.305 0.342,0.427 0.04,0.038 0.081,0.075 0.121,0.109 0.043,0.034 0.086,0.064 0.128,0.094 0.044,0.028 0.088,0.056 0.132,0.077 0.044,0.021 0.091,0.041 0.136,0.057 0.484,0.171 0.919,0.306 1.33,0.404 0.411,0.098 0.798,0.163 1.189,0.193 0.392,0.032 0.788,0.03 1.216,0 0.428,-0.03 0.888,-0.092 1.409,-0.18 0.203,-0.033 0.411,-0.129 0.613,-0.267 0.203,-0.139 0.401,-0.319 0.582,-0.529 0.183,-0.21 0.349,-0.448 0.487,-0.7 0.138,-0.249 0.251,-0.513 0.327,-0.774 0.164,-0.56 0.328,-1.118 0.49,-1.67 0.161,-0.551 0.32,-1.097 0.479,-1.64 0.158,-0.538 0.313,-1.075 0.468,-1.605 0.153,-0.527 0.306,-1.05 0.456,-1.57 0.063,-0.21 0.252,-0.401 0.502,-0.568 0.248,-0.169 0.558,-0.314 0.857,-0.435 0.299,-0.121 0.592,-0.213 0.809,-0.277 0.218,-0.066 0.361,-0.103 0.361,-0.108 0.076,-0.003 0.152,-0.007 0.228,-0.009 0.075,-0.003 0.15,-0.007 0.226,-0.013 0.076,-0.003 0.152,-0.007 0.228,-0.013 0.075,-0.005 0.149,-0.011 0.225,-0.018 0.025,0.002 0.157,0.011 0.356,0.038 0.199,0.024 0.464,0.066 0.754,0.134 0.29,0.066 0.605,0.16 0.904,0.286 0.299,0.125 0.582,0.286 0.806,0.489 0.281,0.482 0.564,0.969 0.851,1.458 0.287,0.494 0.577,0.989 0.869,1.489 0.294,0.503 0.589,1.009 0.887,1.518 0.3,0.512 0.6,1.028 0.901,1.549 0.06,0.1 0.125,0.198 0.195,0.296 0.07,0.099 0.146,0.195 0.227,0.288 0.08,0.094 0.163,0.186 0.251,0.273 0.087,0.088 0.179,0.172 0.271,0.253 0.131,0.111 0.264,0.217 0.399,0.309 0.138,0.091 0.274,0.172 0.411,0.24 0.137,0.066 0.271,0.118 0.403,0.156 0.131,0.035 0.258,0.054 0.379,0.054 0.52,0.002 0.976,-0.015 1.392,-0.056 0.417,-0.041 0.795,-0.104 1.161,-0.199 0.365,-0.096 0.718,-0.221 1.084,-0.382 0.366,-0.162 0.746,-0.361 1.164,-0.604 0.099,-0.057 0.187,-0.133 0.267,-0.226 0.08,-0.092 0.151,-0.201 0.214,-0.321 0.062,-0.122 0.113,-0.255 0.157,-0.396 0.043,-0.142 0.075,-0.292 0.099,-0.446 0.494,-3.377 0.988,-6.753 1.482,-10.127 0.176,-0.028 0.367,-0.058 0.579,-0.077 0.307,-0.028 0.635,-0.039 0.933,-0.006 0.297,0.033 0.565,0.108 0.755,0.252 0.472,0.352 0.945,0.706 1.421,1.062 0.478,0.357 0.957,0.718 1.438,1.078 0.485,0.362 0.972,0.729 1.461,1.095 0.493,0.369 0.987,0.739 1.485,1.112 0.229,0.172 0.486,0.33 0.756,0.466 0.267,0.137 0.546,0.251 0.816,0.338 0.272,0.086 0.538,0.144 0.777,0.165 0.239,0.02 0.454,0.005 0.627,-0.055 0.433,-0.15 0.805,-0.297 1.131,-0.453 0.326,-0.156 0.611,-0.321 0.868,-0.51 0.259,-0.187 0.492,-0.398 0.72,-0.644 0.227,-0.248 0.446,-0.529 0.678,-0.861 0.013,-0.019 0.024,-0.036 0.036,-0.056 0.011,-0.02 0.021,-0.04 0.03,-0.062 0.009,-0.021 0.018,-0.043 0.024,-0.064 0.008,-0.023 0.015,-0.046 0.021,-0.069 0.8,-3.176 1.602,-6.351 2.401,-9.526 0.328,0.113 0.657,0.225 0.987,0.338 0.558,0.19 1.117,0.381 1.678,0.572 0.258,0.088 0.53,0.156 0.804,0.203 0.271,0.046 0.542,0.071 0.794,0.075 0.252,0.003 0.485,-0.019 0.684,-0.062 0.196,-0.046 0.359,-0.114 0.468,-0.21 0.195,-0.172 0.366,-0.331 0.518,-0.489 0.15,-0.156 0.28,-0.309 0.392,-0.463 0.11,-0.154 0.205,-0.309 0.284,-0.472 0.08,-0.163 0.145,-0.334 0.199,-0.519 4.271,-14.474 8.543,-28.949 12.813,-43.424 -0.048,0.16 -0.11,0.309 -0.192,0.45 -0.008,0.016 -0.023,0.029 -0.032,0.043 0.114,-0.188 0.201,-0.384 0.255,-0.604 0.057,-0.231 0.083,-0.488 0.09,-0.784 0.002,-0.117 -0.067,-0.253 -0.188,-0.402 -0.056,-0.066 -0.126,-0.136 -0.203,-0.208 0.762,-2.616 1.523,-5.231 2.287,-7.847 -0.009,0.032 -0.02,0.064 -0.031,0.097 -0.01,0.032 -0.021,0.064 -0.034,0.099 -0.014,0.034 -0.026,0.068 -0.042,0.103 -0.013,0.036 -0.028,0.07 -0.045,0.105 0.1,-0.224 0.167,-0.423 0.202,-0.613 0.02,-0.187 0.021,-0.364 -0.013,-0.547 z"
         id="path1058" />
      <g
         id="g1060">
        <g
           id="g1062">
          <path
             d="m 801.526,333.504 c 0.233,0.19 0.442,0.396 0.62,0.61 0.176,0.213 0.322,0.431 0.426,0.641 0.103,0.208 0.164,0.409 0.172,0.586 0.009,0.179 -0.033,0.333 -0.139,0.45 -0.271,0.301 -0.534,0.56 -0.807,0.784 -0.274,0.228 -0.562,0.419 -0.884,0.592 -0.322,0.173 -0.681,0.325 -1.098,0.466 -0.418,0.144 -0.894,0.278 -1.452,0.418 -0.223,0.054 -0.506,0.066 -0.824,0.049 -0.32,-0.02 -0.676,-0.074 -1.042,-0.153 -0.367,-0.079 -0.746,-0.187 -1.111,-0.312 -0.365,-0.125 -0.718,-0.271 -1.036,-0.431 -0.688,-0.342 -1.371,-0.682 -2.048,-1.019 -0.675,-0.335 -1.342,-0.669 -2.007,-1.001 -0.66,-0.328 -1.314,-0.655 -1.967,-0.979 -0.646,-0.323 -1.291,-0.644 -1.932,-0.961 -0.257,-0.129 -0.613,-0.197 -1.004,-0.228 -0.392,-0.029 -0.819,-0.022 -1.219,0.005 -0.399,0.023 -0.772,0.066 -1.055,0.104 -0.282,0.036 -0.472,0.068 -0.507,0.075 -0.08,0.025 -0.162,0.048 -0.243,0.074 -0.083,0.023 -0.166,0.048 -0.248,0.073 -0.083,0.023 -0.167,0.048 -0.249,0.074 -0.083,0.023 -0.164,0.048 -0.246,0.074 -0.011,0.005 -0.154,0.071 -0.359,0.179 -0.205,0.109 -0.473,0.26 -0.729,0.434 -0.257,0.174 -0.505,0.371 -0.67,0.572 -0.167,0.203 -0.25,0.407 -0.178,0.596 0.179,0.47 0.356,0.943 0.536,1.421 0.183,0.482 0.365,0.97 0.55,1.462 0.187,0.497 0.374,0.999 0.565,1.505 0.191,0.511 0.386,1.026 0.582,1.548 0.093,0.242 0.144,0.497 0.154,0.748 0.012,0.253 -0.017,0.504 -0.082,0.734 -0.066,0.231 -0.172,0.445 -0.312,0.621 -0.143,0.177 -0.319,0.319 -0.531,0.409 -0.549,0.228 -1.048,0.417 -1.531,0.571 -0.483,0.152 -0.951,0.271 -1.438,0.36 -0.486,0.092 -0.99,0.151 -1.549,0.188 -0.56,0.04 -1.17,0.054 -1.87,0.052 -0.16,0 -0.333,-0.018 -0.511,-0.052 -0.178,-0.034 -0.361,-0.084 -0.548,-0.149 -0.187,-0.063 -0.374,-0.142 -0.561,-0.228 -0.186,-0.088 -0.371,-0.187 -0.549,-0.294 -0.127,-0.075 -0.253,-0.156 -0.373,-0.24 -0.12,-0.083 -0.235,-0.169 -0.346,-0.258 -0.111,-0.09 -0.216,-0.18 -0.314,-0.273 -0.097,-0.093 -0.188,-0.187 -0.271,-0.282 -0.421,-0.49 -0.841,-0.976 -1.256,-1.458 -0.411,-0.477 -0.82,-0.951 -1.227,-1.419 -0.402,-0.466 -0.801,-0.927 -1.195,-1.383 -0.39,-0.454 -0.777,-0.902 -1.159,-1.347 -0.302,-0.188 -0.678,-0.336 -1.076,-0.452 -0.397,-0.115 -0.815,-0.201 -1.199,-0.262 -0.384,-0.063 -0.734,-0.1 -0.997,-0.125 -0.263,-0.023 -0.438,-0.032 -0.469,-0.034 -0.1,0.005 -0.198,0.011 -0.298,0.016 -0.099,0.005 -0.198,0.009 -0.298,0.013 -0.1,0.004 -0.199,0.007 -0.299,0.009 -0.1,0.004 -0.199,0.007 -0.299,0.009 -10e-4,0.005 -0.19,0.038 -0.477,0.099 -0.285,0.059 -0.67,0.145 -1.063,0.255 -0.396,0.109 -0.801,0.242 -1.129,0.396 -0.329,0.154 -0.579,0.33 -0.66,0.523 -0.197,0.479 -0.396,0.963 -0.597,1.453 -0.204,0.494 -0.408,0.992 -0.617,1.495 -0.209,0.507 -0.422,1.019 -0.636,1.537 -0.217,0.521 -0.436,1.048 -0.656,1.579 -0.103,0.248 -0.254,0.497 -0.44,0.736 -0.188,0.238 -0.411,0.464 -0.654,0.666 -0.246,0.201 -0.514,0.373 -0.788,0.506 -0.274,0.133 -0.555,0.222 -0.828,0.254 -0.703,0.084 -1.324,0.142 -1.902,0.172 -0.579,0.029 -1.113,0.029 -1.641,-0.002 -0.528,-0.03 -1.049,-0.093 -1.601,-0.188 -0.553,-0.095 -1.135,-0.225 -1.787,-0.388 -0.061,-0.014 -0.121,-0.034 -0.18,-0.056 -0.06,-0.021 -0.119,-0.045 -0.176,-0.073 -0.058,-0.027 -0.114,-0.058 -0.17,-0.09 -0.056,-0.032 -0.108,-0.068 -0.161,-0.106 -0.169,-0.118 -0.322,-0.26 -0.461,-0.42 -0.139,-0.158 -0.259,-0.332 -0.359,-0.517 -0.101,-0.183 -0.182,-0.375 -0.238,-0.568 -0.057,-0.194 -0.091,-0.39 -0.096,-0.582 -0.019,-0.542 -0.036,-1.08 -0.053,-1.611 -0.018,-0.527 -0.034,-1.048 -0.051,-1.564 -0.016,-0.511 -0.032,-1.017 -0.049,-1.519 -0.016,-0.496 -0.032,-0.989 -0.047,-1.475 -10e-4,-0.056 -0.016,-0.111 -0.041,-0.165 -0.025,-0.054 -0.063,-0.11 -0.109,-0.164 -0.045,-0.054 -0.1,-0.106 -0.164,-0.158 -0.063,-0.052 -0.133,-0.104 -0.21,-0.154 -0.197,-0.131 -0.431,-0.255 -0.671,-0.366 -0.239,-0.109 -0.484,-0.208 -0.706,-0.291 -0.222,-0.083 -0.421,-0.149 -0.569,-0.197 -0.146,-0.046 -0.244,-0.075 -0.263,-0.081 -0.092,-0.016 -0.183,-0.034 -0.276,-0.05 -0.092,-0.016 -0.186,-0.032 -0.278,-0.048 -0.094,-0.016 -0.187,-0.032 -0.28,-0.047 -0.094,-0.016 -0.188,-0.032 -0.281,-0.046 -0.004,0 -0.194,-0.009 -0.493,-0.015 -0.298,-0.005 -0.705,-0.005 -1.137,0.013 -0.432,0.018 -0.89,0.056 -1.294,0.127 -0.403,0.072 -0.753,0.179 -0.968,0.335 -0.526,0.391 -1.058,0.784 -1.594,1.179 -0.539,0.4 -1.083,0.802 -1.633,1.207 -0.552,0.409 -1.108,0.82 -1.671,1.236 -0.564,0.418 -1.136,0.839 -1.711,1.265 -0.271,0.197 -0.58,0.386 -0.912,0.556 -0.332,0.17 -0.687,0.323 -1.039,0.447 -0.353,0.125 -0.703,0.22 -1.032,0.278 -0.327,0.058 -0.633,0.075 -0.889,0.046 -0.657,-0.075 -1.224,-0.156 -1.731,-0.253 -0.507,-0.097 -0.955,-0.209 -1.374,-0.348 -0.419,-0.139 -0.81,-0.302 -1.2,-0.5 -0.391,-0.197 -0.781,-0.431 -1.204,-0.707 -0.161,-0.127 -0.271,-0.292 -0.336,-0.482 -0.063,-0.19 -0.084,-0.404 -0.062,-0.626 0.021,-0.223 0.084,-0.456 0.181,-0.686 0.096,-0.231 0.229,-0.458 0.393,-0.669 0.366,-0.476 0.729,-0.947 1.089,-1.414 0.358,-0.463 0.712,-0.922 1.062,-1.376 0.345,-0.45 0.688,-0.896 1.028,-1.336 0.336,-0.438 0.67,-0.872 0.998,-1.301 0.134,-0.172 0.13,-0.373 0.051,-0.58 -0.079,-0.204 -0.233,-0.416 -0.406,-0.606 -0.172,-0.188 -0.362,-0.359 -0.514,-0.484 -0.152,-0.126 -0.264,-0.208 -0.283,-0.221 -0.067,-0.032 -0.136,-0.065 -0.203,-0.097 -0.067,-0.032 -0.135,-0.064 -0.201,-0.097 -0.066,-0.031 -0.134,-0.063 -0.199,-0.095 -0.066,-0.03 -0.131,-0.061 -0.197,-0.093 -0.002,0.002 -0.154,-0.041 -0.397,-0.102 -0.243,-0.061 -0.575,-0.136 -0.944,-0.201 -0.367,-0.064 -0.77,-0.117 -1.15,-0.129 -0.38,-0.013 -0.739,0.016 -1.023,0.113 -0.698,0.242 -1.399,0.484 -2.104,0.729 -0.709,0.244 -1.421,0.49 -2.136,0.737 -0.721,0.248 -1.443,0.497 -2.17,0.746 -0.729,0.251 -1.465,0.504 -2.202,0.755 -0.343,0.118 -0.714,0.222 -1.088,0.305 -0.375,0.084 -0.752,0.147 -1.11,0.187 -0.357,0.039 -0.694,0.054 -0.986,0.041 -0.291,-0.014 -0.537,-0.058 -0.713,-0.131 -0.228,-0.093 -0.437,-0.183 -0.628,-0.271 -0.193,-0.086 -0.367,-0.174 -0.529,-0.26 -0.163,-0.088 -0.31,-0.176 -0.445,-0.265 -0.136,-0.09 -0.259,-0.181 -0.372,-0.278 -0.114,-0.095 -0.218,-0.195 -0.314,-0.301 -0.098,-0.104 -0.186,-0.215 -0.269,-0.335 -0.082,-0.117 -0.16,-0.244 -0.233,-0.378 -0.074,-0.133 -0.146,-0.276 -0.213,-0.431 -0.057,-0.118 -0.045,-0.267 0.025,-0.432 0.068,-0.165 0.193,-0.346 0.359,-0.533 0.164,-0.185 0.37,-0.375 0.605,-0.56 0.231,-0.181 0.493,-0.357 0.769,-0.515 0.593,-0.334 1.18,-0.664 1.765,-0.994 0.581,-0.326 1.158,-0.653 1.73,-0.976 0.57,-0.321 1.135,-0.639 1.696,-0.957 0.557,-0.315 1.11,-0.627 1.659,-0.938 0.223,-0.127 0.358,-0.3 0.436,-0.49 0.076,-0.19 0.095,-0.395 0.086,-0.586 -0.01,-0.19 -0.047,-0.366 -0.084,-0.499 -0.037,-0.131 -0.073,-0.221 -0.078,-0.237 -0.029,-0.038 -0.059,-0.075 -0.088,-0.115 -0.031,-0.038 -0.063,-0.075 -0.092,-0.113 -0.031,-0.04 -0.063,-0.077 -0.092,-0.115 -0.03,-0.038 -0.059,-0.076 -0.087,-0.113 -0.005,0 -0.095,-0.063 -0.246,-0.154 -0.148,-0.091 -0.359,-0.211 -0.604,-0.327 -0.245,-0.115 -0.523,-0.226 -0.812,-0.297 -0.289,-0.071 -0.587,-0.106 -0.872,-0.068 -0.696,0.09 -1.394,0.179 -2.094,0.271 -0.702,0.089 -1.406,0.181 -2.112,0.271 -0.706,0.092 -1.417,0.183 -2.128,0.275 -0.712,0.091 -1.428,0.183 -2.143,0.274 -0.318,0.041 -0.645,0.064 -0.963,0.073 -0.318,0.009 -0.627,0.002 -0.909,-0.021 -0.282,-0.023 -0.537,-0.061 -0.747,-0.113 -0.209,-0.054 -0.374,-0.12 -0.475,-0.203 -0.224,-0.233 -0.398,-0.443 -0.529,-0.644 -0.13,-0.199 -0.215,-0.391 -0.261,-0.587 -0.045,-0.197 -0.05,-0.398 -0.02,-0.622 0.029,-0.221 0.096,-0.461 0.192,-0.737 0.038,-0.108 0.144,-0.228 0.3,-0.354 0.156,-0.127 0.362,-0.258 0.603,-0.386 0.237,-0.129 0.51,-0.255 0.798,-0.37 0.288,-0.115 0.592,-0.219 0.896,-0.305 0.652,-0.187 1.303,-0.373 1.951,-0.56 0.645,-0.185 1.287,-0.368 1.926,-0.551 0.636,-0.181 1.269,-0.362 1.899,-0.543 0.628,-0.179 1.253,-0.359 1.874,-0.537 0.253,-0.073 0.47,-0.199 0.653,-0.348 0.185,-0.147 0.335,-0.319 0.454,-0.483 0.117,-0.161 0.206,-0.317 0.267,-0.434 0.059,-0.118 0.091,-0.199 0.097,-0.213 0.003,-0.038 0.006,-0.075 0.008,-0.113 0.003,-0.036 0.004,-0.074 0.005,-0.109 0.003,-0.038 0.003,-0.074 0.005,-0.111 0,-0.036 10e-4,-0.072 0.002,-0.109 -0.002,10e-4 -0.017,-0.032 -0.045,-0.09 -0.028,-0.056 -0.07,-0.135 -0.127,-0.224 -0.056,-0.088 -0.128,-0.187 -0.215,-0.284 -0.087,-0.095 -0.188,-0.188 -0.308,-0.267 -0.047,-0.031 -0.095,-0.059 -0.146,-0.084 -0.05,-0.025 -0.104,-0.046 -0.16,-0.066 -0.056,-0.02 -0.115,-0.034 -0.176,-0.046 -0.062,-0.011 -0.126,-0.02 -0.193,-0.021 -0.588,-0.027 -1.177,-0.052 -1.765,-0.079 -0.588,-0.027 -1.176,-0.052 -1.763,-0.079 -0.588,-0.025 -1.173,-0.052 -1.759,-0.077 -0.586,-0.027 -1.172,-0.054 -1.756,-0.079 -0.205,-0.009 -0.407,-0.029 -0.602,-0.054 -0.192,-0.027 -0.378,-0.059 -0.547,-0.1 -0.171,-0.04 -0.325,-0.086 -0.457,-0.137 -0.133,-0.05 -0.243,-0.105 -0.326,-0.165 -0.026,-0.02 -0.05,-0.038 -0.07,-0.057 -0.02,-0.02 -0.038,-0.04 -0.053,-0.058 -0.014,-0.02 -0.024,-0.04 -0.033,-0.059 -0.008,-0.021 -0.013,-0.041 -0.013,-0.061 -0.012,-0.217 -0.006,-0.407 0.029,-0.586 0.034,-0.18 0.094,-0.345 0.187,-0.513 0.092,-0.167 0.216,-0.333 0.379,-0.513 0.163,-0.179 0.364,-0.37 0.608,-0.584 0.095,-0.084 0.25,-0.169 0.445,-0.251 0.193,-0.084 0.43,-0.165 0.688,-0.238 0.258,-0.074 0.537,-0.142 0.823,-0.199 0.286,-0.056 0.577,-0.103 0.856,-0.135 0.603,-0.066 1.206,-0.133 1.809,-0.199 0.602,-0.066 1.202,-0.132 1.801,-0.199 0.598,-0.066 1.195,-0.133 1.791,-0.199 0.594,-0.066 1.187,-0.133 1.776,-0.199 0.242,-0.025 0.493,-0.102 0.733,-0.205 0.239,-0.101 0.469,-0.226 0.668,-0.348 0.199,-0.122 0.37,-0.242 0.494,-0.333 0.123,-0.093 0.2,-0.158 0.215,-0.168 0.027,-0.032 0.054,-0.063 0.079,-0.095 0.025,-0.032 0.05,-0.063 0.074,-0.093 0.023,-0.031 0.048,-0.063 0.073,-0.093 0.024,-0.031 0.049,-0.061 0.073,-0.092 0.004,-0.011 0.026,-0.064 0.049,-0.143 0.024,-0.079 0.049,-0.183 0.059,-0.294 0.01,-0.111 0.004,-0.229 -0.032,-0.335 -0.038,-0.107 -0.106,-0.203 -0.222,-0.271 -0.48,-0.116 -0.949,-0.228 -1.407,-0.337 -0.458,-0.11 -0.905,-0.215 -1.347,-0.318 -0.438,-0.102 -0.872,-0.203 -1.302,-0.301 -0.428,-0.101 -0.853,-0.197 -1.277,-0.294 -0.08,-0.018 -0.16,-0.04 -0.235,-0.061 -0.076,-0.023 -0.149,-0.049 -0.22,-0.076 -0.067,-0.025 -0.134,-0.054 -0.194,-0.083 -0.06,-0.029 -0.117,-0.059 -0.169,-0.089 -0.074,-0.043 -0.136,-0.088 -0.188,-0.135 -0.054,-0.045 -0.094,-0.091 -0.121,-0.138 -0.028,-0.046 -0.043,-0.093 -0.044,-0.138 0,-0.045 0.013,-0.088 0.043,-0.129 0.132,-0.185 0.263,-0.345 0.405,-0.49 0.141,-0.146 0.294,-0.278 0.472,-0.407 0.178,-0.129 0.379,-0.253 0.619,-0.386 0.236,-0.129 0.514,-0.266 0.839,-0.418 0.126,-0.059 0.297,-0.111 0.499,-0.158 0.201,-0.047 0.432,-0.084 0.675,-0.115 0.244,-0.03 0.501,-0.054 0.756,-0.066 0.255,-0.012 0.506,-0.014 0.74,-0.007 0.506,0.018 1.012,0.036 1.518,0.054 0.507,0.018 1.014,0.036 1.521,0.054 0.507,0.018 1.015,0.036 1.521,0.054 0.508,0.018 1.017,0.036 1.525,0.054 0.204,0.007 0.455,-0.029 0.715,-0.088 0.259,-0.06 0.529,-0.14 0.773,-0.223 0.243,-0.081 0.461,-0.163 0.619,-0.226 0.159,-0.063 0.257,-0.106 0.263,-0.107 0.04,-0.023 0.08,-0.049 0.121,-0.072 0.042,-0.025 0.083,-0.048 0.124,-0.072 0.042,-0.025 0.084,-0.048 0.125,-0.072 0.041,-0.025 0.083,-0.048 0.124,-0.072 0.012,-0.009 0.077,-0.063 0.163,-0.142 0.084,-0.079 0.188,-0.182 0.275,-0.291 0.087,-0.107 0.158,-0.222 0.178,-0.325 0.021,-0.1 -0.01,-0.188 -0.126,-0.247 -0.278,-0.141 -0.555,-0.281 -0.831,-0.419 -0.275,-0.139 -0.551,-0.277 -0.824,-0.416 -0.272,-0.136 -0.544,-0.273 -0.814,-0.409 -0.268,-0.136 -0.536,-0.271 -0.801,-0.405 -0.123,-0.061 -0.227,-0.131 -0.307,-0.207 -0.08,-0.075 -0.137,-0.155 -0.168,-0.233 -0.03,-0.079 -0.034,-0.157 -0.008,-0.229 0.026,-0.073 0.082,-0.139 0.172,-0.195 0.224,-0.142 0.432,-0.264 0.641,-0.373 0.208,-0.109 0.416,-0.207 0.644,-0.297 0.225,-0.091 0.468,-0.176 0.743,-0.262 0.275,-0.084 0.583,-0.171 0.941,-0.265 0.139,-0.036 0.311,-0.062 0.502,-0.078 0.19,-0.016 0.4,-0.023 0.615,-0.021 0.216,10e-4 0.436,0.012 0.646,0.03 0.212,0.018 0.417,0.045 0.598,0.079 0.393,0.073 0.785,0.149 1.18,0.223 0.395,0.076 0.791,0.152 1.187,0.227 0.397,0.075 0.797,0.151 1.196,0.228 0.4,0.077 0.802,0.153 1.206,0.229 0.165,0.032 0.393,0.03 0.643,0.011 0.25,-0.019 0.521,-0.058 0.774,-0.1 0.254,-0.042 0.489,-0.089 0.665,-0.126 0.177,-0.038 0.295,-0.065 0.317,-0.071 0.027,-0.008 0.056,-0.016 0.081,-0.024 0.027,-0.009 0.053,-0.016 0.078,-0.025 0.025,-0.009 0.05,-0.017 0.075,-0.025 0.024,-0.008 0.05,-0.017 0.074,-0.025 0.025,-0.008 0.051,-0.015 0.076,-0.023 0.025,-0.007 0.05,-0.015 0.074,-0.023 0.025,-0.007 0.051,-0.014 0.075,-0.021 0.025,-0.008 0.05,-0.016 0.075,-0.024 0,-10e-4 0.085,-0.038 0.207,-0.096 0.121,-0.059 0.28,-0.139 0.432,-0.227 0.152,-0.087 0.297,-0.183 0.39,-0.272 0.092,-0.09 0.132,-0.174 0.077,-0.239 -0.134,-0.157 -0.268,-0.314 -0.399,-0.471 -0.131,-0.157 -0.263,-0.311 -0.392,-0.465 -0.13,-0.153 -0.259,-0.305 -0.387,-0.458 -0.127,-0.15 -0.255,-0.3 -0.381,-0.45 -0.059,-0.067 -0.095,-0.142 -0.108,-0.218 -0.014,-0.075 -0.006,-0.152 0.023,-0.225 0.03,-0.074 0.08,-0.144 0.151,-0.205 0.07,-0.061 0.162,-0.114 0.275,-0.153 0.283,-0.1 0.539,-0.186 0.789,-0.257 0.248,-0.074 0.487,-0.136 0.74,-0.192 0.249,-0.055 0.511,-0.103 0.801,-0.148 0.289,-0.044 0.606,-0.088 0.971,-0.13 0.143,-0.018 0.306,-0.021 0.479,-0.016 0.172,0.006 0.354,0.023 0.533,0.049 0.181,0.025 0.359,0.059 0.523,0.1 0.166,0.041 0.317,0.087 0.445,0.138 0.279,0.111 0.56,0.222 0.842,0.334 0.282,0.112 0.567,0.225 0.853,0.338 0.286,0.114 0.572,0.229 0.859,0.342 0.288,0.116 0.578,0.231 0.868,0.348 0.121,0.047 0.319,0.072 0.549,0.084 0.229,0.011 0.492,0.008 0.742,0 0.25,-0.009 0.488,-0.024 0.668,-0.038 0.181,-0.014 0.305,-0.025 0.327,-0.027 0.057,-0.009 0.112,-0.018 0.169,-0.027 0.055,-0.01 0.11,-0.02 0.167,-0.028 0.056,-0.01 0.111,-0.018 0.169,-0.026 0.057,-0.01 0.113,-0.018 0.17,-0.027 0.007,-0.002 0.107,-0.025 0.256,-0.063 0.146,-0.039 0.341,-0.093 0.536,-0.155 0.191,-0.062 0.385,-0.132 0.528,-0.202 0.143,-0.07 0.236,-0.141 0.235,-0.205 -10e-4,-0.16 -0.003,-0.319 -0.005,-0.477 -0.002,-0.156 -0.004,-0.313 -0.008,-0.468 -0.002,-0.154 -0.006,-0.307 -0.008,-0.46 -0.003,-0.151 -0.006,-0.302 -0.01,-0.453 -0.001,-0.069 0.022,-0.142 0.065,-0.211 0.042,-0.071 0.104,-0.14 0.184,-0.204 0.079,-0.063 0.173,-0.12 0.279,-0.168 0.104,-0.048 0.224,-0.086 0.35,-0.109 0.324,-0.061 0.613,-0.11 0.887,-0.15 0.273,-0.04 0.531,-0.07 0.794,-0.094 0.262,-0.023 0.527,-0.038 0.817,-0.047 0.29,-0.009 0.603,-0.013 0.961,-0.013 0.081,0 0.166,0.005 0.251,0.014 0.086,0.01 0.173,0.023 0.259,0.04 0.087,0.016 0.175,0.037 0.26,0.06 0.085,0.023 0.169,0.049 0.246,0.077 0.058,0.021 0.113,0.042 0.165,0.063 0.053,0.022 0.102,0.046 0.149,0.07 0.048,0.023 0.092,0.048 0.131,0.072 0.04,0.025 0.078,0.051 0.11,0.077 0.168,0.134 0.337,0.268 0.508,0.403 0.171,0.136 0.345,0.273 0.517,0.411 0.172,0.138 0.347,0.276 0.521,0.416 0.176,0.14 0.352,0.282 0.527,0.422 0.155,0.06 0.356,0.108 0.573,0.146 0.218,0.038 0.45,0.065 0.665,0.085 0.216,0.021 0.413,0.033 0.563,0.042 0.148,0.007 0.248,0.011 0.266,0.011 0.058,-0.001 0.114,-0.003 0.171,-0.004 0.059,-0.002 0.115,-0.002 0.173,-0.004 0.057,-10e-4 0.114,-0.002 0.173,-0.003 0.058,-10e-4 0.115,-0.002 0.175,-0.004 0,-10e-4 0.107,-0.011 0.273,-0.03 0.164,-0.019 0.385,-0.047 0.613,-0.082 0.227,-0.035 0.46,-0.078 0.647,-0.127 0.189,-0.049 0.331,-0.105 0.379,-0.167 0.119,-0.15 0.237,-0.299 0.354,-0.447 0.115,-0.148 0.231,-0.294 0.345,-0.44 0.113,-0.144 0.228,-0.289 0.34,-0.432 0.111,-0.144 0.222,-0.285 0.331,-0.427 0.054,-0.065 0.13,-0.129 0.223,-0.19 0.095,-0.062 0.206,-0.12 0.327,-0.17 0.122,-0.05 0.254,-0.094 0.388,-0.127 0.136,-0.032 0.273,-0.055 0.41,-0.063 0.348,-0.02 0.655,-0.034 0.941,-0.042 0.287,-0.006 0.553,-0.006 0.816,0.002 0.264,0.008 0.526,0.023 0.809,0.048 0.281,0.023 0.58,0.056 0.917,0.097 0.032,0.005 0.063,0.009 0.095,0.016 0.031,0.004 0.063,0.012 0.094,0.019 0.03,0.006 0.062,0.015 0.092,0.021 0.029,0.009 0.061,0.018 0.089,0.028 0.093,0.03 0.183,0.066 0.265,0.107 0.083,0.041 0.158,0.086 0.226,0.134 0.066,0.048 0.124,0.098 0.171,0.149 0.045,0.052 0.08,0.104 0.1,0.156 0.058,0.147 0.115,0.294 0.175,0.443 0.058,0.149 0.116,0.3 0.177,0.451 0.059,0.151 0.119,0.305 0.18,0.457 0.06,0.154 0.12,0.31 0.182,0.465 0.007,0.018 0.021,0.036 0.041,0.054 0.021,0.016 0.048,0.034 0.079,0.052 0.032,0.017 0.07,0.034 0.111,0.051 0.041,0.017 0.088,0.034 0.137,0.05 0.13,0.044 0.277,0.083 0.429,0.121 0.15,0.037 0.303,0.07 0.441,0.098 0.14,0.028 0.263,0.05 0.354,0.066 0.091,0.016 0.151,0.026 0.162,0.028 0.059,0.005 0.117,0.011 0.175,0.017 0.057,0.005 0.114,0.012 0.171,0.017 0.058,0.005 0.114,0.011 0.171,0.016 0.056,0.005 0.111,0.012 0.167,0.018 0.002,0 0.115,0.003 0.29,0.005 0.175,0.002 0.411,0.002 0.66,-0.003 0.248,-0.006 0.508,-0.018 0.73,-0.043 0.223,-0.023 0.405,-0.06 0.501,-0.113 0.232,-0.129 0.463,-0.258 0.693,-0.387 0.229,-0.128 0.459,-0.254 0.686,-0.382 0.226,-0.126 0.451,-0.252 0.676,-0.377 0.224,-0.125 0.446,-0.249 0.667,-0.372 0.103,-0.058 0.229,-0.111 0.369,-0.16 0.14,-0.049 0.296,-0.091 0.457,-0.126 0.159,-0.035 0.324,-0.06 0.484,-0.076 0.159,-0.016 0.316,-0.02 0.456,-0.012 0.362,0.021 0.68,0.044 0.97,0.071 0.293,0.027 0.558,0.059 0.814,0.099 0.259,0.04 0.508,0.086 0.771,0.144 0.263,0.058 0.537,0.125 0.845,0.207 0.126,0.039 0.236,0.088 0.327,0.145 0.091,0.057 0.166,0.12 0.221,0.188 0.054,0.068 0.089,0.139 0.104,0.21 0.017,0.071 0.011,0.142 -0.016,0.208 -0.061,0.151 -0.121,0.303 -0.181,0.456 -0.062,0.152 -0.123,0.307 -0.184,0.462 -0.063,0.155 -0.126,0.312 -0.189,0.469 -0.063,0.158 -0.128,0.315 -0.194,0.476 -0.025,0.064 0.042,0.141 0.157,0.22 0.117,0.079 0.284,0.161 0.456,0.235 0.173,0.073 0.351,0.142 0.489,0.192 0.141,0.049 0.24,0.083 0.258,0.088 0.055,0.013 0.107,0.026 0.162,0.039 0.053,0.013 0.106,0.026 0.16,0.039 0.053,0.013 0.105,0.025 0.159,0.038 0.054,0.013 0.107,0.025 0.161,0.04 0.002,-0.001 0.113,0.016 0.29,0.041 0.176,0.024 0.417,0.056 0.676,0.083 0.259,0.025 0.535,0.048 0.783,0.052 0.246,0.005 0.465,-0.006 0.606,-0.047 0.347,-0.097 0.69,-0.193 1.034,-0.291 0.342,-0.097 0.683,-0.194 1.022,-0.289 0.338,-0.096 0.674,-0.192 1.011,-0.287 0.334,-0.095 0.667,-0.19 1.001,-0.284 0.151,-0.043 0.327,-0.08 0.515,-0.11 0.188,-0.03 0.386,-0.052 0.583,-0.066 0.196,-0.015 0.392,-0.019 0.574,-0.015 0.181,0.005 0.351,0.02 0.491,0.047 0.183,0.034 0.353,0.066 0.513,0.1 0.159,0.033 0.309,0.065 0.451,0.097 0.142,0.032 0.276,0.066 0.406,0.1 0.128,0.034 0.253,0.069 0.373,0.105 0.12,0.037 0.236,0.074 0.353,0.115 0.115,0.04 0.23,0.083 0.346,0.128 0.116,0.047 0.234,0.095 0.354,0.147 0.12,0.053 0.246,0.108 0.375,0.169 0.104,0.048 0.18,0.108 0.23,0.176 0.051,0.066 0.078,0.141 0.08,0.217 0.003,0.076 -0.02,0.154 -0.063,0.23 -0.043,0.076 -0.111,0.149 -0.197,0.216 -0.191,0.144 -0.383,0.287 -0.576,0.433 -0.193,0.145 -0.389,0.291 -0.585,0.438 -0.196,0.148 -0.395,0.296 -0.595,0.445 -0.2,0.149 -0.401,0.3 -0.603,0.451 -0.083,0.062 -0.077,0.148 -0.019,0.242 0.057,0.095 0.165,0.199 0.287,0.296 0.121,0.098 0.254,0.189 0.362,0.258 0.107,0.068 0.188,0.115 0.203,0.124 0.047,0.021 0.093,0.042 0.139,0.061 0.047,0.021 0.095,0.042 0.141,0.061 0.047,0.021 0.094,0.042 0.14,0.061 0.048,0.02 0.094,0.04 0.139,0.059 0.021,0.007 0.136,0.044 0.307,0.095 0.171,0.05 0.4,0.115 0.649,0.176 0.251,0.062 0.521,0.12 0.777,0.158 0.255,0.038 0.494,0.055 0.681,0.034 0.455,-0.048 0.908,-0.099 1.362,-0.147 0.453,-0.048 0.904,-0.097 1.354,-0.146 0.45,-0.049 0.899,-0.098 1.35,-0.146 0.449,-0.048 0.896,-0.097 1.343,-0.146 0.197,-0.021 0.413,-0.034 0.636,-0.039 0.223,-0.004 0.451,0 0.673,0.012 0.221,0.011 0.436,0.031 0.629,0.058 0.195,0.029 0.368,0.063 0.508,0.107 0.362,0.126 0.672,0.241 0.943,0.351 0.271,0.11 0.503,0.218 0.714,0.328 0.211,0.111 0.398,0.227 0.579,0.354 0.183,0.129 0.357,0.271 0.544,0.435 0.073,0.063 0.106,0.136 0.105,0.211 -0.002,0.075 -0.036,0.154 -0.102,0.233 -0.064,0.079 -0.156,0.156 -0.272,0.228 -0.117,0.072 -0.256,0.138 -0.411,0.194 -0.34,0.119 -0.68,0.237 -1.021,0.355 -0.343,0.12 -0.686,0.24 -1.031,0.36 -0.348,0.122 -0.694,0.244 -1.043,0.364 -0.351,0.122 -0.702,0.246 -1.055,0.37 -0.143,0.05 -0.209,0.138 -0.229,0.242 -0.017,0.105 0.013,0.228 0.063,0.344 0.05,0.118 0.118,0.231 0.177,0.317 0.061,0.088 0.109,0.147 0.118,0.158 0.034,0.027 0.067,0.056 0.102,0.083 0.033,0.028 0.068,0.055 0.102,0.083 0.034,0.028 0.067,0.056 0.102,0.084 0.033,0.029 0.066,0.056 0.101,0.084 0.001,-0.002 0.048,0.025 0.126,0.068 0.08,0.043 0.194,0.104 0.331,0.172 0.137,0.068 0.297,0.146 0.471,0.219 0.172,0.075 0.357,0.148 0.543,0.211 0.071,0.025 0.143,0.047 0.214,0.066 0.07,0.02 0.141,0.038 0.209,0.054 0.069,0.015 0.137,0.027 0.204,0.038 0.065,0.009 0.129,0.015 0.192,0.016 0.551,0.022 1.104,0.043 1.654,0.065 0.554,0.021 1.107,0.041 1.661,0.063 0.553,0.021 1.106,0.043 1.661,0.065 0.555,0.021 1.109,0.041 1.664,0.063 0.195,0.007 0.398,0.021 0.604,0.043 0.205,0.021 0.413,0.048 0.614,0.081 0.202,0.034 0.397,0.072 0.582,0.113 0.183,0.042 0.354,0.088 0.504,0.136 0.048,0.016 0.093,0.032 0.137,0.048 0.044,0.017 0.086,0.033 0.124,0.049 0.04,0.018 0.075,0.034 0.109,0.05 0.033,0.018 0.064,0.034 0.093,0.052 0.294,0.183 0.539,0.346 0.748,0.499 0.208,0.156 0.378,0.302 0.52,0.451 0.143,0.147 0.256,0.297 0.353,0.461 0.096,0.163 0.173,0.339 0.244,0.542 0.027,0.077 0,0.158 -0.069,0.237 -0.071,0.079 -0.185,0.156 -0.33,0.228 -0.146,0.07 -0.325,0.136 -0.525,0.192 -0.199,0.054 -0.421,0.099 -0.652,0.129 -0.499,0.066 -0.999,0.132 -1.502,0.199 -0.502,0.065 -1.007,0.131 -1.513,0.198 -0.507,0.066 -1.014,0.132 -1.523,0.201 -0.511,0.066 -1.022,0.133 -1.535,0.201 -0.207,0.027 -0.36,0.108 -0.472,0.212 -0.113,0.106 -0.187,0.237 -0.233,0.366 -0.046,0.129 -0.067,0.256 -0.075,0.357 -0.01,0.099 -0.006,0.168 -0.006,0.181 0.011,0.034 0.023,0.068 0.037,0.102 0.014,0.034 0.029,0.068 0.044,0.103 0.016,0.034 0.031,0.068 0.047,0.102 0.013,0.034 0.027,0.066 0.039,0.101 0.002,0 0.048,0.056 0.125,0.142 0.081,0.086 0.194,0.205 0.336,0.333 0.141,0.129 0.31,0.268 0.497,0.393 0.188,0.127 0.394,0.242 0.611,0.319 0.688,0.14 1.359,0.274 2.021,0.405 0.663,0.133 1.313,0.262 1.958,0.388 0.646,0.125 1.283,0.249 1.917,0.373 0.638,0.124 1.271,0.246 1.904,0.368 0.123,0.023 0.247,0.05 0.371,0.079 0.125,0.03 0.248,0.061 0.37,0.095 0.123,0.033 0.246,0.068 0.364,0.106 0.119,0.038 0.236,0.077 0.35,0.117 0.157,0.056 0.309,0.115 0.448,0.174 0.14,0.06 0.27,0.121 0.384,0.181 0.114,0.061 0.214,0.122 0.297,0.182 0.082,0.061 0.146,0.118 0.189,0.174 0.182,0.246 0.324,0.463 0.431,0.664 0.106,0.203 0.176,0.388 0.211,0.569 0.034,0.183 0.033,0.36 0,0.551 -0.035,0.19 -0.103,0.389 -0.202,0.613 -0.04,0.09 -0.147,0.169 -0.306,0.239 -0.155,0.07 -0.363,0.131 -0.603,0.178 -0.239,0.046 -0.512,0.081 -0.8,0.1 -0.288,0.018 -0.593,0.023 -0.896,0.011 -0.653,-0.027 -1.307,-0.054 -1.96,-0.082 -0.651,-0.027 -1.303,-0.054 -1.956,-0.079 -0.651,-0.029 -1.303,-0.054 -1.953,-0.081 -0.65,-0.027 -1.301,-0.054 -1.952,-0.079 -0.264,-0.013 -0.513,0.041 -0.738,0.131 -0.227,0.088 -0.43,0.212 -0.6,0.337 -0.172,0.125 -0.311,0.253 -0.406,0.35 -0.098,0.099 -0.15,0.167 -0.153,0.17 -0.015,0.038 -0.028,0.076 -0.043,0.115 -0.013,0.038 -0.027,0.076 -0.04,0.115 -0.015,0.038 -0.027,0.077 -0.041,0.115 -0.015,0.039 -0.029,0.077 -0.045,0.116 0.002,0.015 0.002,0.101 0.021,0.228 0.017,0.125 0.05,0.294 0.113,0.474 0.063,0.179 0.157,0.368 0.297,0.538 0.137,0.172 0.32,0.323 0.563,0.422 0.605,0.242 1.214,0.486 1.824,0.73 0.613,0.248 1.23,0.495 1.85,0.746 0.624,0.251 1.252,0.502 1.883,0.757 0.634,0.256 1.271,0.515 1.914,0.773 0.298,0.119 0.59,0.256 0.858,0.404 0.27,0.149 0.518,0.307 0.729,0.463 0.213,0.158 0.387,0.315 0.509,0.461 0.121,0.149 0.19,0.285 0.188,0.402 -0.007,0.296 -0.033,0.552 -0.09,0.784 -0.058,0.233 -0.144,0.441 -0.269,0.639 -0.128,0.197 -0.293,0.384 -0.51,0.572 -0.217,0.192 -0.482,0.384 -0.811,0.596 -0.128,0.084 -0.329,0.146 -0.578,0.183 -0.25,0.04 -0.549,0.057 -0.875,0.054 -0.326,-0.002 -0.68,-0.025 -1.035,-0.066 -0.357,-0.042 -0.717,-0.102 -1.06,-0.179 -0.744,-0.169 -1.486,-0.335 -2.227,-0.504 -0.737,-0.167 -1.473,-0.333 -2.205,-0.499 -0.729,-0.165 -1.456,-0.33 -2.181,-0.493 -0.723,-0.164 -1.44,-0.327 -2.156,-0.488 -0.289,-0.064 -0.615,-0.061 -0.943,-0.02 -0.329,0.043 -0.66,0.124 -0.958,0.215 -0.299,0.091 -0.565,0.192 -0.764,0.272 -0.199,0.081 -0.327,0.142 -0.351,0.152 -0.031,0.018 -0.06,0.034 -0.085,0.05 -0.027,0.018 -0.052,0.034 -0.076,0.052 -0.022,0.018 -0.046,0.036 -0.069,0.052 -0.022,0.018 -0.046,0.036 -0.07,0.054 -0.024,0.018 -0.049,0.036 -0.074,0.052 -0.025,0.018 -0.051,0.034 -0.076,0.052 -0.025,0.018 -0.052,0.034 -0.076,0.052 -0.026,0.016 -0.051,0.034 -0.074,0.052 0.003,0.003 -0.061,0.086 -0.147,0.217 -0.087,0.129 -0.196,0.309 -0.284,0.508 -0.088,0.199 -0.154,0.418 -0.152,0.625 0.002,0.206 0.074,0.4 0.26,0.55 0.463,0.375 0.932,0.752 1.403,1.13 0.477,0.384 0.956,0.77 1.441,1.159 0.489,0.391 0.982,0.788 1.478,1.186 0.511,0.391 1.014,0.796 1.52,1.205 z m -63.759,-16.19 c 2.347,1.306 5.233,2.314 8.439,3 3.257,0.698 6.788,1.051 10.347,1.051 3.556,0.002 7.079,-0.35 10.321,-1.044 3.189,-0.684 6.055,-1.688 8.374,-2.992 2.247,-1.263 3.744,-2.675 4.548,-4.128 0.775,-1.401 0.904,-2.838 0.448,-4.221 -0.439,-1.334 -1.426,-2.623 -2.903,-3.792 -1.431,-1.134 -3.334,-2.163 -5.674,-3.032 -2.281,-0.847 -4.791,-1.467 -7.39,-1.876 -2.565,-0.404 -5.247,-0.605 -7.911,-0.606 -2.665,-0.004 -5.346,0.193 -7.906,0.592 -2.592,0.404 -5.095,1.022 -7.367,1.864 -2.33,0.867 -4.218,1.895 -5.634,3.026 -1.462,1.17 -2.426,2.458 -2.846,3.794 -0.434,1.385 -0.28,2.824 0.522,4.227 0.832,1.455 2.358,2.871 4.632,4.137"
             id="path1064"
             style="fill:#b79b6f" />
        </g>
      </g>
      <g
         id="g1066">
        <path
           d="m 761.605,306.655 c 0.744,0.31 1.32,0.672 1.721,1.065 0.406,0.395 0.636,0.818 0.684,1.249 0.049,0.434 -0.09,0.874 -0.418,1.292 -0.334,0.423 -0.863,0.824 -1.593,1.171 -0.738,0.354 -1.609,0.621 -2.55,0.798 -0.945,0.18 -1.958,0.269 -2.972,0.269 -1.016,0 -2.029,-0.091 -2.979,-0.272 -0.943,-0.179 -1.819,-0.447 -2.564,-0.8 -0.736,-0.352 -1.273,-0.751 -1.613,-1.175 -0.337,-0.418 -0.482,-0.857 -0.441,-1.293 0.04,-0.429 0.263,-0.854 0.662,-1.249 0.396,-0.389 0.965,-0.751 1.704,-1.062 0.731,-0.307 1.563,-0.537 2.444,-0.687 0.876,-0.151 1.802,-0.226 2.729,-0.224 0.927,0 1.854,0.077 2.733,0.228 0.882,0.152 1.718,0.381 2.453,0.69 z"
           id="path1068"
           style="fill:#b79b6f" />
      </g>
    </g>
  </g>
</svg>
