<?xml version="1.0" encoding="UTF-8" standalone="no"?>
<!-- Created with Inkscape (http://www.inkscape.org/) -->


<svg
   xmlns:dc="http://purl.org/dc/elements/1.1/"
   xmlns:cc="http://creativecommons.org/ns#"
   xmlns:rdf="http://www.w3.org/1999/02/22-rdf-syntax-ns#"
   xmlns:svg="http://www.w3.org/2000/svg"
   xmlns="http://www.w3.org/2000/svg"
   version="1.1"
   width="1000"
   height="1000"   
   id="body"
   xml:space="preserve">
   <script type="text/ecmascript" id="script"><![CDATA[
   	

   		function getObjectId(elementId){
   			index = elementId.indexOf('-');
   			if(index>0)
   				return elementId.substring(0,index);
   			else
   				return '';
   		}
   		
   		function getObjectElement(objectId,type)
   		{
   			elementId = "";
   			if(objectId=="")
   				elementId = type;
   			else
   				elementId = objectId + "-" + type;
   					
   			return document.getElementById(elementId);   		
   		}
   		
   		function handleEvent(e){
   			//alert('event is '+e.target.textContent);   			
   		}
   		
   		function addMutationEvent(target){
   			//alert('in add mutation');
   			target.addEventListener('DOMCharacterDataModified', handleEvent,false);
   		}
   ]]></script>
   <defs
     id="defs">
     <filter id="f1" x="0" y="0">
      <feGaussianBlur in="SourceGraphic" stdDeviation="15" />
     </filter>
     
   </defs>
   <rect id="background" x="0" y="0" width="1000" height="1000" style="fill:#00589d;fill-opacity:1;opacity:0.11934156000000000" />
    <g
     id="transform-object"><rect
       width="500"
       height="500"
       x="91.428574"
       y="175.21933"
       id="transform-border"
       style="fill:none;stroke:#000000;stroke-width:2;stroke-linejoin:miter;stroke-miterlimit:4;stroke-opacity:1;stroke-dasharray:4, 4;stroke-dashoffset:10" /><path
       d="m 340.87477,154.62604 5.68972,-5.13221 -3.5619,0 -0.0287,-7.46077 3.61932,0 -5.71842,-3.64774 -5.79474,3.64774 3.77781,0 0,7.46077 -4.02243,0 z"
       id="transform-toparrow"
       style="fill:#000000;fill-opacity:1;stroke:#000000;stroke-width:0.34999999px;stroke-linecap:butt;stroke-linejoin:miter;stroke-opacity:1" /><path
       d="m 340.47376,698.9923 -5.68972,5.13221 3.5619,0 0.0287,7.46077 -3.61931,0 5.71842,3.64774 5.79474,-3.64774 -3.77781,0 0,-7.46077 4.02243,0 z"
       id="transform-bottomarrow"
       style="fill:#000000;fill-opacity:1;stroke:#000000;stroke-width:0.34999999px;stroke-linecap:butt;stroke-linejoin:miter;stroke-opacity:1" /><path
       d="m 68.824279,431.31669 -5.132218,-5.68972 0,3.5619 -7.460768,0.0287 0,-3.61931 -3.647742,5.71842 3.647742,5.79474 0,-3.77781 7.460768,0 0,4.02243 z"
       id="transform-leftarrow"
       style="fill:#000000;fill-opacity:1;stroke:#000000;stroke-width:0.34999999px;stroke-linecap:butt;stroke-linejoin:miter;stroke-opacity:1" /><path
       d="m 610.45703,430.03506 5.13221,5.68973 0,-3.5619 7.46077,-0.0287 0,3.61931 3.64774,-5.71842 -3.64774,-5.79474 0,3.77781 -7.46077,0 0,-4.02243 z"
       id="transform-rightarrow"
       style="fill:#000000;fill-opacity:1;stroke:#000000;stroke-width:0.34999999px;stroke-linecap:butt;stroke-linejoin:miter;stroke-opacity:1" /><path
       d="m 603.16824,168.61922 7.65226,0.39422 -2.51865,-2.51865 5.25527,-5.29585 2.55924,2.55923 -1.46419,-6.62287 -6.67684,-1.51816 2.67131,2.67132 -5.27555,5.27556 -2.84429,-2.84429 z"
       id="transform-righttoparrow"
       style="fill:#000000;fill-opacity:1;stroke:#000000;stroke-width:0.34999999px;stroke-linecap:butt;stroke-linejoin:miter;stroke-opacity:1" /><path
       d="m 80.446732,687.60387 -7.652263,-0.39422 2.518642,2.51865 -5.255264,5.29585 -2.559242,-2.55923 1.464194,6.62287 6.676841,1.51816 -2.671319,-2.67132 5.275557,-5.27557 2.844289,2.8443 z"
       id="transform-leftbottomarrow"
       style="fill:#000000;fill-opacity:1;stroke:#000000;stroke-width:0.34999999px;stroke-linecap:butt;stroke-linejoin:miter;stroke-opacity:1" /><path
       d="m 78.161473,168.21279 0.394212,-7.65226 -2.518646,2.51864 -5.295853,-5.25526 2.559238,-2.55924 -6.622878,1.46419 -1.518153,6.67684 2.671319,-2.67132 5.27556,5.27556 -2.844289,2.84429 z"
       id="transform-lefttoparrow"
       style="fill:#000000;fill-opacity:1;stroke:#000000;stroke-width:0.34999999px;stroke-linecap:butt;stroke-linejoin:miter;stroke-opacity:1" /><path
       d="m 601.69675,683.71609 -0.39422,7.65226 2.51865,-2.51865 5.29585,5.25527 -2.55923,2.55924 6.62287,-1.46419 1.51816,-6.67684 -2.67132,2.67131 -5.27557,-5.27555 2.84429,-2.84429 z"
       id="transform-rightbottomarrow"
       style="fill:#000000;fill-opacity:1;stroke:#000000;stroke-width:0.34999999px;stroke-linecap:butt;stroke-linejoin:miter;stroke-opacity:1" />
       </g>
       
   	
     
     </svg>