<?xml version="1.0" encoding="UTF-8" standalone="no"?>
<!-- Created with Inkscape (http://www.inkscape.org/) -->


<svg
   xmlns:dc="http://purl.org/dc/elements/1.1/"
   xmlns:cc="http://creativecommons.org/ns#"
   xmlns:rdf="http://www.w3.org/1999/02/22-rdf-syntax-ns#"
   xmlns:svg="http://www.w3.org/2000/svg"
   xmlns="http://www.w3.org/2000/svg"
   version="1.1"
   width="1000"
   height="1000"   
   id="body"
   xml:space="preserve">
   <script type="text/ecmascript" id="script"><![CDATA[
   		function getObjectId(elementId){
   			index = elementId.indexOf('-');
   			if(index>0)
   				return elementId.substring(0,index);
   			else
   				return '';
   		}
   		
   		function getObjectElement(objectId,type)
   		{
   			elementId = "";
   			if(objectId=="")
   				elementId = type;
   			else
   				elementId = objectId + "-" + type;
   					
   			return document.getElementById(elementId);   		
   		}
   ]]></script>
   <defs
     id="defs">
     <filter id="f1" x="0" y="0">
      <feGaussianBlur in="SourceGraphic" stdDeviation="15" />
     </filter>
     
   </defs>
   <rect id="background" x="0" y="0" width="1000" height="1000" style="fill:#00589d;fill-opacity:1;opacity:0.11934156000000000" />
   <g
     id="transform-object" transform="scale(1,1) translate(0,0)">
    <rect
       width="500"
       height="500"       
       x="91.428574"
       y="175.21933"
       id="transform-border"
       style="fill:none;stroke:#000000;stroke-width:2;stroke-linejoin:miter;stroke-miterlimit:4;stroke-opacity:1;stroke-dasharray:16, 16;stroke-dashoffset:40" />
    <path
       d="m 341.17276,169.70672 16.25634,-14.66348 -10.17686,0 -0.082,-21.31648 10.3409,0 -16.33835,-10.42212 -16.55639,10.42212 10.79376,0 0,21.31648 -11.49266,0 z"
       id="transform-toparrow"
       style="fill:#000000;fill-opacity:1;stroke:#000000;stroke-width:1px;stroke-linecap:butt;stroke-linejoin:miter;stroke-opacity:1" />
    <path
       d="m 340.17577,683.91162 -16.25634,14.66348 10.17686,0 0.082,21.31648 -10.34089,0 16.33835,10.42212 16.55639,-10.42212 -10.79376,0 0,-21.31648 11.49266,0 z"
       id="transform-bottomarrow"
       style="fill:#000000;fill-opacity:1;stroke:#000000;stroke-width:1px;stroke-linecap:butt;stroke-linejoin:miter;stroke-opacity:1" />
    <path
       d="m 83.904955,431.0187 -14.66348,-16.25634 0,10.17686 -21.31648,0.082 0,-10.34089 -10.42212,16.33835 10.42212,16.55639 0,-10.79376 21.31648,0 0,11.49266 z"
       id="transform-leftarrow"
       style="fill:#000000;fill-opacity:1;stroke:#000000;stroke-width:1px;stroke-linecap:butt;stroke-linejoin:miter;stroke-opacity:1" />
    <path
       d="m 595.37635,430.33306 14.66348,16.25634 0,-10.17686 21.31648,-0.082 0,10.34089 10.42212,-16.33835 -10.42212,-16.55639 0,10.79376 -21.31648,0 0,-11.49266 z"
       id="transform-rightarrow"
       style="fill:#000000;fill-opacity:1;stroke:#000000;stroke-width:1px;stroke-linecap:butt;stroke-linejoin:miter;stroke-opacity:1" />
    <path
       d="m 591.74059,180.32653 21.86361,1.12632 -7.19612,-7.19613 15.01504,-15.13101 7.31212,7.31211 -4.18341,-18.92251 -19.07669,-4.33758 7.63234,7.63234 -15.07302,15.07303 -8.12654,-8.12654 z"
       id="transform-righttoparrow"
       style="fill:#000000;fill-opacity:1;stroke:#000000;stroke-width:1px;stroke-linecap:butt;stroke-linejoin:miter;stroke-opacity:1" />
    <path
       d="m 91.874376,675.89656 -21.86361,-1.12632 7.19612,7.19613 -15.01504,15.13101 -7.31212,-7.31211 4.18341,18.92251 19.07669,4.33758 -7.63234,-7.63234 15.07302,-15.07303 8.12654,8.12654 z"
       id="transform-leftbottomarrow"
       style="fill:#000000;fill-opacity:1;stroke:#000000;stroke-width:1px;stroke-linecap:butt;stroke-linejoin:miter;stroke-opacity:1" />
    <path
       d="m 89.868779,179.64044 1.12632,-21.86361 -7.19613,7.19612 -15.13101,-15.01504 7.31211,-7.31212 -18.92251,4.18341 -4.33758,19.07669 7.63234,-7.63234 15.07303,15.07302 -8.12654,8.12654 z"
       id="transform-lefttoparrow"
       style="fill:#000000;fill-opacity:1;stroke:#000000;stroke-width:1px;stroke-linecap:butt;stroke-linejoin:miter;stroke-opacity:1" />
    <path
    
       d="m 589.98944,672.28844 -1.12632,21.86361 7.19613,-7.19612 15.13101,15.01504 -7.31211,7.31212 18.92251,-4.18341 4.33758,-19.07669 -7.63234,7.63234 -15.07303,-15.07302 8.12654,-8.12654 z"
       id="transform-rightbottomarrow"
       style="fill:#000000;fill-opacity:1;stroke:#000000;stroke-width:1px;stroke-linecap:butt;stroke-linejoin:miter;stroke-opacity:1" />
  </g>
   
   	
     
     </svg>