<?xml version="1.0" encoding="UTF-8" standalone="no"?>
<!-- Created with Inkscape (http://www.inkscape.org/) -->


<svg
   xmlns:dc="http://purl.org/dc/elements/1.1/"
   xmlns:cc="http://creativecommons.org/ns#"
   xmlns:rdf="http://www.w3.org/1999/02/22-rdf-syntax-ns#"
   xmlns:svg="http://www.w3.org/2000/svg"
   xmlns="http://www.w3.org/2000/svg"
   version="1.1"
   width="1000"
   height="1000"   
   id="body"
   xml:space="preserve">
   <script type="text/ecmascript" id="script"><![CDATA[
   		function getObjectId(elementId){
   			index = elementId.indexOf('-');
   			if(index>0)
   				return elementId.substring(0,index);
   			else
   				return '';
   		}
   		
   		function getObjectElement(objectId,type)
   		{
   			elementId = "";
   			if(objectId=="")
   				elementId = type;
   			else
   				elementId = objectId + "-" + type;
   					
   			return document.getElementById(elementId);   		
   		}
   ]]></script>
   <defs
     id="defs">
     <filter id="f1" x="0" y="0">
      <feGaussianBlur in="SourceGraphic" stdDeviation="15" />
     </filter>
     
   </defs>
   <rect id="background" x="0" y="0" width="1000" height="1000" style="fill:#00589d;fill-opacity:1;opacity:0.11934156000000000" />
   <g
     id="transform">
    <rect
       width="500"
       height="500"
       rx="20"
       ry="20"
       x="91.428574"
       y="175.21933"
       id="selectbox"
       style="fill:none;stroke:#000000;stroke-width:4;stroke-linejoin:miter;stroke-miterlimit:4;stroke-opacity:1;stroke-dasharray:16, 4;stroke-dashoffset:40" />
    <path
       d="m 340.25588,123.30464 -16.25634,14.66348 10.17686,0 0.082,21.31648 -10.3409,0 16.33835,10.42212 16.55639,-10.42212 -10.79376,0 0,-21.31648 11.49266,0 z"
       id="toparrow"
       style="fill:#000000;fill-opacity:1;stroke:#000000;stroke-width:1px;stroke-linecap:butt;stroke-linejoin:miter;stroke-opacity:1" />
    <path
       d="m 340.17577,683.91162 -16.25634,14.66348 10.17686,0 0.082,21.31648 -10.34089,0 16.33835,10.42212 16.55639,-10.42212 -10.79376,0 0,-21.31648 11.49266,0 z"
       id="bottomarrow"
       style="fill:#000000;fill-opacity:1;stroke:#000000;stroke-width:1px;stroke-linecap:butt;stroke-linejoin:miter;stroke-opacity:1" />
    <path
       d="m 83.904955,431.0187 -14.66348,-16.25634 0,10.17686 -21.31648,0.082 0,-10.34089 -10.42212,16.33835 10.42212,16.55639 0,-10.79376 21.31648,0 0,11.49266 z"
       id="leftarrow"
       style="fill:#000000;fill-opacity:1;stroke:#000000;stroke-width:1px;stroke-linecap:butt;stroke-linejoin:miter;stroke-opacity:1" />
    <path
       d="m 641.77843,429.41616 -14.66348,-16.25634 0,10.17686 -21.31648,0.082 0,-10.34089 -10.42212,16.33835 10.42212,16.55639 0,-10.79376 21.31648,0 0,11.49266 z"
       id="rightarrow"
       style="fill:#000000;fill-opacity:1;stroke:#000000;stroke-width:1px;stroke-linecap:butt;stroke-linejoin:miter;stroke-opacity:1" />
    <path
       d="m 626.90257,144.30405 -21.86361,-1.12632 7.19612,7.19613 -15.01504,15.13101 -7.31212,-7.31211 4.18341,18.92251 19.07669,4.33758 -7.63234,-7.63234 15.07302,-15.07303 8.12654,8.12654 z"
       id="righttoparrow"
       style="fill:#000000;fill-opacity:1;stroke:#000000;stroke-width:1px;stroke-linecap:butt;stroke-linejoin:miter;stroke-opacity:1" />
    <path
       d="m 91.874376,675.89656 -21.86361,-1.12632 7.19612,7.19613 -15.01504,15.13101 -7.31212,-7.31211 4.18341,18.92251 19.07669,4.33758 -7.63234,-7.63234 15.07302,-15.07303 8.12654,8.12654 z"
       id="leftbottomarrow"
       style="fill:#000000;fill-opacity:1;stroke:#000000;stroke-width:1px;stroke-linecap:butt;stroke-linejoin:miter;stroke-opacity:1" />
    <path
       d="m 89.868779,179.64044 1.12632,-21.86361 -7.19613,7.19612 -15.13101,-15.01504 7.31211,-7.31212 -18.92251,4.18341 -4.33758,19.07669 7.63234,-7.63234 15.07303,15.07302 -8.12654,8.12654 z"
       id="lefttoparrow"
       style="fill:#000000;fill-opacity:1;stroke:#000000;stroke-width:1px;stroke-linecap:butt;stroke-linejoin:miter;stroke-opacity:1" />
    <path
       d="m 626.01192,707.45042 1.12632,-21.86361 -7.19613,7.19612 -15.13101,-15.01504 7.31211,-7.31212 -18.92251,4.18341 -4.33758,19.07669 7.63234,-7.63234 15.07303,15.07302 -8.12654,8.12654 z"
       id="rightbottomarrow"
       style="fill:#000000;fill-opacity:1;stroke:#000000;stroke-width:1px;stroke-linecap:butt;stroke-linejoin:miter;stroke-opacity:1" />
  </g>
   
   	
     
     </svg>